<?xml version="1.0" ?><svg contentScriptType="text/ecmascript" contentStyleType="text/css" enable-background="new 0 0 2048 2048" height="2048px" id="Layer_1" preserveAspectRatio="xMidYMid meet" version="1.1" viewBox="0.0 0 1792.0 2048" width="1792.0px" xml:space="preserve" xmlns="http://www.w3.org/2000/svg" xmlns:xlink="http://www.w3.org/1999/xlink" zoomAndPan="magnify"><path d="M1696,512c26.667,0,49.333,9.333,68,28s28,41.333,28,68v1216c0,26.667-9.333,49.333-28,68s-41.333,28-68,28H736  c-26.667,0-49.333-9.333-68-28s-28-41.333-28-68v-288H96c-26.667,0-49.333-9.333-68-28s-28-41.333-28-68V768  c0-26.667,6.667-56,20-88s29.333-57.333,48-76l408-408c18.667-18.667,44-34.667,76-48s61.333-20,88-20h416  c26.667,0,49.333,9.333,68,28s28,41.333,28,68v328c45.333-26.667,88-40,128-40H1696z M1152,725l-299,299h299V725z M512,341L213,640  h299V341z M708,988l316-316V256H640v416c0,26.667-9.333,49.333-28,68s-41.333,28-68,28H128v640h512v-256c0-26.667,6.667-56,20-88  S689.333,1006.667,708,988z M1664,1792V640h-384v416c0,26.667-9.333,49.333-28,68s-41.333,28-68,28H768v640H1664z"/></svg>